<svg viewBox="0 0 1169 192" xmlns="http://www.w3.org/2000/svg" fill-rule="evenodd" clip-rule="evenodd" stroke-linejoin="round" stroke-miterlimit="1.414"><path d="M289.669 153.886c0 3.971-3.69 7.363-8.05 4.856C228.75 128.391 100.043 53.998 100.043 53.998l33.582-19.391a22.423 22.423 0 0 1 22.427 0s96.475 55.857 130.567 75.497c2.863 1.65 3.09 4.546 3.05 6.29-.234 10.741-.004 27.676 0 37.492zM8.058 158.742c-4.363 2.507-8.054-.885-8.054-4.856.007-9.816.234-26.75 0-37.491-.036-1.745.19-4.64 3.054-6.291 18.668-10.755 79.41-45.94 79.41-45.94l44.553 25.955S37.046 142.095 8.058 158.742z" fill="#192568"/><g fill="#192568" fill-rule="nonzero"><path d="M400.836 189.091V2.901h34.068v158.196h86.888v27.994H400.836zM599.966 56.778c18.135 0 31.603 4.401 40.408 13.205 8.801 8.803 13.204 22.36 13.204 40.671v78.437h-31.426v-19.809c-2.992 6.87-7.703 12.24-14.13 16.114-6.425 3.873-13.868 5.808-22.317 5.808-8.627 0-16.46-1.761-23.505-5.283-7.044-3.518-12.587-8.363-16.638-14.526-4.051-6.16-6.073-13.026-6.073-20.599 0-9.508 2.42-16.99 7.261-22.447 4.84-5.459 12.722-9.42 23.64-11.885 10.912-2.465 25.968-3.697 45.157-3.697h6.605v-6.074c0-8.804-1.895-15.142-5.677-19.016-3.787-3.873-10.08-5.81-18.885-5.81-6.867 0-14.04 1.189-21.523 3.566-7.486 2.377-14.834 5.678-22.052 9.903l-9.247-22.712c7.222-4.578 15.936-8.363 26.146-11.357 10.215-2.993 19.896-4.49 29.052-4.49zm-7.66 110.657c8.805 0 15.98-2.95 21.527-8.849 5.544-5.895 8.32-13.511 8.32-22.841v-5.548h-4.754c-11.798 0-20.955.53-27.47 1.584-6.514 1.058-11.177 2.906-13.996 5.547-2.816 2.642-4.225 6.25-4.225 10.827 0 5.634 1.939 10.257 5.812 13.866 3.87 3.61 8.8 5.414 14.787 5.414zM762.122 56.778c15.494 0 27.027 4.401 34.6 13.205 7.57 8.803 11.356 22.096 11.356 39.879v79.23h-33.013V111.71c0-10.035-1.895-17.342-5.678-21.92-3.786-4.578-9.728-6.867-17.826-6.867-9.508 0-17.125 2.994-22.846 8.98-5.721 5.986-8.584 13.997-8.584 24.033v73.155H687.12V59.947h32.219v19.28c4.402-7.22 10.301-12.766 17.696-16.639 7.396-3.873 15.758-5.81 25.088-5.81zM966.273 2.902v186.19h-32.747v-20.864c-3.878 7.218-9.465 12.852-16.773 16.903-7.305 4.047-15.628 6.073-24.958 6.073-11.09 0-20.993-2.815-29.711-8.45-8.714-5.634-15.494-13.602-20.335-23.903-4.84-10.298-7.265-22.139-7.265-35.52 0-13.381 2.425-25.09 7.265-35.125 4.841-10.036 11.577-17.783 20.204-23.241 8.627-5.458 18.573-8.187 29.842-8.187 9.33 0 17.606 1.937 24.828 5.81 7.217 3.873 12.765 9.332 16.638 16.374V2.902h33.012zm-65.76 162.685c10.562 0 18.704-3.61 24.429-10.827 5.721-7.221 8.584-17.519 8.584-30.901 0-13.381-2.863-23.637-8.584-30.768-5.725-7.13-13.78-10.696-24.168-10.696-10.562 0-18.751 3.522-24.56 10.564-5.811 7.043-8.717 17.167-8.717 30.372 0 13.381 2.906 23.77 8.718 31.165 5.808 7.395 13.91 11.09 24.298 11.09zM1000.34 189.091V59.947h33.012v129.144h-33.012zM998.492-.004h36.444v32.485h-36.444V-.004zM1114.962 191.204c-11.447 0-21.965-1.41-31.564-4.225-9.594-2.82-17.736-6.866-24.428-12.15l9.243-22.975c13.736 10.037 29.49 15.051 47.274 15.051 7.573 0 13.337-1.231 17.298-3.695 3.964-2.464 5.942-5.986 5.942-10.566 0-3.873-1.362-6.866-4.09-8.979-2.733-2.112-7.617-4.047-14.661-5.808l-21.128-4.754c-11.971-2.641-20.863-6.955-26.671-12.942-5.812-5.986-8.718-13.733-8.718-23.24 0-7.923 2.246-14.922 6.736-20.996 4.49-6.074 10.74-10.784 18.75-14.13 8.012-3.344 17.299-5.017 27.864-5.017 9.157 0 18.001 1.408 26.541 4.226 8.54 2.816 16.066 6.778 22.581 11.884l-9.243 22.448c-13.381-9.683-26.762-14.525-40.143-14.525-7.218 0-12.852 1.32-16.903 3.961-4.051 2.641-6.077 6.339-6.077 11.093 0 3.52 1.28 6.426 3.83 8.715 2.555 2.289 6.65 4.05 12.284 5.282l21.917 5.018c12.856 2.817 22.273 7.262 28.259 13.336 5.99 6.076 8.982 14.04 8.982 23.903 0 11.971-4.844 21.479-14.526 28.523-9.685 7.04-22.802 10.562-39.35 10.562z"/></g></svg>